<svg width="120" height="38" viewBox="0 0 120 38" fill="none" xmlns="http://www.w3.org/2000/svg">
<g clip-path="url(#clip0)">
<path d="M95.1254 14.7492H90.6451L91.2723 12.5449C89.4085 12.2581 87.473 11.9893 85.4659 11.7384L81.7741 21.7742H88.5842L89.3189 19.319H96.4336L97.1684 21.7742H104.194L101.487 14.6058C99.3906 14.0682 97.1146 13.5843 94.6774 13.1363L95.1254 14.7492Z" fill="white"/>
<path d="M92.8852 6.9355L93.9247 10.5556C96.2723 10.9498 98.4408 11.3979 100.448 11.8638L96.1827 0.573486H89.5877L86.3082 9.4803C88.2795 9.71327 90.1612 9.96417 91.9533 10.233L92.8852 6.9355Z" fill="white"/>
<path d="M47.1147 6.93549L47.5448 8.44087C49.4086 8.35126 51.3262 8.27958 53.2975 8.24374L50.4122 0.573486H43.8172L40.7706 8.85306C42.6702 8.70969 44.6416 8.58424 46.6846 8.47671L47.1147 6.93549Z" fill="white"/>
<path d="M49.3548 14.7491H44.8745L46.0036 10.8064C43.9068 10.9318 41.8638 11.0931 39.8745 11.2723L36.0036 21.7741H42.8136L43.5484 19.3189H50.6631L51.3978 21.7741H58.4229L54.1398 10.4301C52.1147 10.4838 50.1433 10.5555 48.1899 10.663L49.3548 14.7491Z" fill="white"/>
<path d="M69.104 5.48388H71.7384C73.4409 5.48388 74.5161 6.81005 74.5161 8.47671C74.5161 8.49463 74.5161 8.49463 74.5161 8.51256C76.7384 8.638 78.871 8.78137 80.9319 8.94266C80.9319 8.78137 80.9498 8.638 80.9498 8.47671C80.9498 4.21148 77.8316 0.573486 72.9928 0.573486H62.8136V8.17205C64.9821 8.18997 67.0789 8.22582 69.1219 8.2975V5.48388H69.104Z" fill="white"/>
<path d="M71.7204 11.4874H69.1219V10.5018C67.0609 10.4301 64.9642 10.3763 62.8136 10.3584V21.7742H69.1219V16.362H72.9928C76.7384 16.362 79.4624 14.1756 80.5018 11.2365C78.2975 11.0394 76.0036 10.8602 73.6559 10.7347C73.1541 11.1828 72.509 11.4874 71.7204 11.4874Z" fill="white"/>
<path d="M80.9318 8.94263C80.896 9.73116 80.7347 10.5018 80.4838 11.2186C82.1863 11.3799 83.853 11.5591 85.4659 11.7383L86.3082 9.46234C84.5877 9.28313 82.7956 9.10392 80.9318 8.94263Z" fill="#E8A444"/>
<path d="M18.6738 14.6237C20.4122 14.1936 22.2581 13.7993 24.2294 13.4229C24.1039 13.3692 23.9785 13.3154 23.8351 13.2617C22.5448 12.7419 21.2903 12.276 20.2151 11.7025C6.30825 14.767 0 19.2832 0 23.1183C0 28.2975 9.96416 31.6488 14.0143 32.7957C10.4839 31.7563 2.63441 28.871 2.63441 23.638C2.63441 20.6452 7.59857 17.6882 16.0036 15.3226C15.9857 15.0896 15.9857 14.8566 15.9857 14.6237H18.6738Z" fill="#E8A444"/>
<path d="M46.0036 10.8064C46.7205 10.7526 47.4552 10.7168 48.19 10.681L47.5448 8.45874C47.2402 8.47666 46.9534 8.49458 46.6667 8.49458L46.0036 10.8064Z" fill="#E8A444"/>
<path d="M29.7491 10.0179C30.7885 10.5735 31.6846 11.2365 32.3298 12.1147C34.7312 11.7921 37.2581 11.5054 39.8746 11.2724L40.7706 8.85303C36.7742 9.15769 33.1183 9.55195 29.7491 10.0179Z" fill="#E8A444"/>
<path d="M91.2723 12.5628C92.4372 12.742 93.5662 12.9391 94.6594 13.1363L93.9247 10.5556C93.2795 10.4481 92.6164 10.3406 91.9354 10.233L91.2723 12.5628Z" fill="#E8A444"/>
<path d="M14.0144 32.7957C15.0359 33.1003 15.7169 33.2437 15.7169 33.2437C15.7169 33.2437 15.0717 33.1003 14.0144 32.7957Z" fill="#E8A444"/>
<path d="M60.6093 8.15417C58.1004 8.15417 55.6631 8.19002 53.3154 8.24378L54.1398 10.4302C56.3083 10.3764 58.5126 10.3406 60.7527 10.3406C61.4337 10.3406 62.1147 10.3406 62.7957 10.3585V8.1721C62.0789 8.15417 61.3441 8.15417 60.6093 8.15417Z" fill="#E8A444"/>
<path d="M100.448 11.8638L101.487 14.6057C111.649 17.1684 117.67 20.5734 117.67 23.9426C117.67 30.6631 105.43 33.0824 105.43 33.0824C105.43 33.0824 120.018 30.8243 120.018 23.9426C120 19.8745 114.086 15.0896 100.448 11.8638Z" fill="#E8A444"/>
<path d="M69.104 10.5018C70.6452 10.5555 72.1506 10.6272 73.638 10.7168C74.1936 10.1792 74.5162 9.39065 74.5162 8.51252C72.7599 8.42291 70.9678 8.35123 69.104 8.27954V10.5018Z" fill="#E8A444"/>
<path d="M91.9354 10.2329C90.1433 9.96409 88.2795 9.7132 86.2903 9.48022L85.448 11.7562C87.4552 11.9892 89.3907 12.2759 91.2544 12.5627L91.9354 10.2329Z" fill="white"/>
<path d="M93.9246 10.5555L94.6594 13.1362C97.0967 13.5842 99.3727 14.086 101.469 14.6057L100.43 11.8638C98.4408 11.3978 96.2723 10.9498 93.9246 10.5555Z" fill="#E8A444"/>
<path d="M15.9857 14.6237C15.9857 14.8566 16.0036 15.0896 16.0036 15.3226C16.8638 15.0896 17.742 14.8566 18.6739 14.6237H15.9857Z" fill="#E8A444"/>
<path d="M32.3477 12.1147C31.7025 11.2366 30.7886 10.5735 29.767 10.0179C28.5126 9.35484 27.0789 8.85305 25.6989 8.35125C23.7635 7.65233 22.7957 7.02509 22.7957 5.9319C22.7957 4.7491 23.6739 4.26523 24.7312 4.26523C26.1291 4.26523 26.828 5.14337 26.828 6.89964H33.1362C33.1004 3.56631 31.0036 0 24.8208 0C20.5735 0 16.4337 1.79211 16.4337 6.14695C16.4337 9.05018 17.9929 10.5556 20.1972 11.7025C21.2903 12.276 22.5269 12.7419 23.8172 13.2617C23.9606 13.3154 24.086 13.3692 24.2115 13.4229C26.147 14.2115 27.0251 14.6953 27.0251 15.8065C27.0251 16.9355 26.2366 17.6165 24.9283 17.6165C23.3154 17.6165 22.2581 16.5591 22.2581 14.6237H18.638C17.724 14.8566 16.828 15.0896 15.9678 15.3226C16.2724 19.8387 19.6237 22.3477 24.6595 22.3477C29.9821 22.3477 33.3154 19.8029 33.3154 15.4122C33.3692 14.0502 32.9749 12.9928 32.3477 12.1147Z" fill="white"/>
<path d="M46.6666 8.49463C44.6236 8.60216 42.6523 8.7276 40.7527 8.87097L39.8566 11.2903C41.8458 11.1111 43.8889 10.9498 45.9856 10.8244L46.6666 8.49463Z" fill="white"/>
<path d="M47.5447 8.44091L48.1899 10.6631C50.1254 10.5556 52.1146 10.4839 54.1397 10.4302L53.3154 8.24377C51.3261 8.29754 49.4085 8.3513 47.5447 8.44091Z" fill="#E8A444"/>
<path d="M74.534 8.51257C74.534 9.39071 74.2114 10.1792 73.6559 10.7169C76.0036 10.8602 78.2796 11.0215 80.5018 11.2187C80.7527 10.5018 80.914 9.73121 80.9498 8.94268C78.8889 8.78139 76.7563 8.6201 74.534 8.51257Z" fill="white"/>
<path d="M69.1039 8.27962C67.0788 8.22586 64.9821 8.1721 62.7957 8.15417V10.3406C64.9462 10.3585 67.043 10.4122 69.1039 10.4839V8.27962Z" fill="#E8A444"/>
<path d="M19.8387 36.0215C20.7169 36.0215 21.3979 35.4659 21.3979 34.6057C21.3979 33.6559 20.5377 33.3154 19.8925 33.1003C18.1542 32.491 16.7384 31.9534 16.7384 30.0537C16.7384 28.4767 18.1004 27.4373 19.6954 27.4373C21.4158 27.4373 22.724 28.6559 22.724 30.4122H21.1649C21.1649 29.4803 20.6273 28.8351 19.7312 28.8351C18.9606 28.8351 18.2975 29.2294 18.2975 30.0537C18.2975 30.8244 18.9785 31.2186 19.6954 31.4516C21.1828 31.9892 22.957 32.6165 22.957 34.4265C22.957 36.3799 21.4696 37.4193 19.6954 37.4193C17.957 37.4193 16.4158 36.2007 16.4158 34.0681H17.9749C17.9929 35.3226 18.7455 36.0215 19.8387 36.0215Z" fill="white"/>
<path d="M27.1148 32.4193C27.1148 29.8387 28.9786 27.4193 32.0431 27.4193C35.1076 27.4193 36.9714 29.8387 36.9714 32.4193C36.9714 35 35.1076 37.4193 32.0431 37.4193C28.9786 37.4193 27.1148 35.0179 27.1148 32.4193ZM35.3227 32.4193C35.3227 30.5734 34.0682 28.8172 32.0431 28.8172C30.018 28.8172 28.7635 30.5555 28.7635 32.4193C28.7635 34.2652 30.018 36.0215 32.0431 36.0215C34.0682 36.0215 35.3227 34.2831 35.3227 32.4193Z" fill="white"/>
<path d="M43.0466 32.0789H46.9893V33.4767H43.0466V37.1864H41.4875V27.6523H46.9893V29.0502H43.0466V32.0789Z" fill="white"/>
<path d="M50.9499 29.0502V27.6523H57.2402V29.0502H54.8746V37.1864H53.3155V29.0502H50.9499Z" fill="white"/>
<path d="M64.8746 37.1864H63.7456L60.4481 27.6523H62.0969L64.2833 34.4445L66.4876 27.6523H67.6524L69.8567 34.4445L72.0431 27.6523H73.6919L70.3944 37.1864H69.2653L67.0789 30.3943L64.8746 37.1864Z" fill="white"/>
<path d="M81.3442 35.9856H77.7599L77.3478 37.2042H75.699L78.9965 27.6702H80.1076L83.4051 37.2042H81.7564L81.3442 35.9856ZM78.2438 34.5698H80.8782L79.57 30.2508L78.2438 34.5698Z" fill="white"/>
<path d="M90.8602 27.6523C92.8853 27.6523 94.2294 29.1936 94.2294 30.9857C94.2294 32.3477 93.4587 33.5663 92.2222 34.086L94.1218 37.1864H92.3297L90.5913 34.319H89.0322V37.1864H87.4731V27.6523H90.8602ZM92.6523 30.9857C92.6523 29.9462 91.9354 29.0502 90.8602 29.0502H89.0143V32.9212H90.8602C91.9534 32.9212 92.6523 32.0251 92.6523 30.9857Z" fill="white"/>
<path d="M100.287 31.7563H104.23V33.1541H100.287V35.7885H104.23V37.1864H98.7277V27.6523H104.23V29.0502H100.287V31.7563Z" fill="white"/>
</g>
<defs>
<clipPath id="clip0">
<rect width="120" height="37.4194" fill="white"/>
</clipPath>
</defs>
</svg>
